<svg width="36" height="36" viewBox="0 0 36 36" fill="none" xmlns="http://www.w3.org/2000/svg">
<path d="M29.3333 0H6.66667C2.98477 0 0 2.98477 0 6.66667V29.3333C0 33.0152 2.98477 36 6.66667 36H29.3333C33.0152 36 36 33.0152 36 29.3333V6.66667C36 2.98477 33.0152 0 29.3333 0Z" fill="#F7AAF3"/>
<path d="M23.2299 24.7928H12.7743C12.4688 24.7928 12.2188 24.5428 12.2188 24.2372V12.5372C12.2188 9.34834 14.8132 6.75391 18.0021 6.75391C21.191 6.75391 23.7854 9.34834 23.7854 12.5372V24.2372C23.7854 24.5428 23.5354 24.7928 23.2299 24.7928ZM13.3299 23.6817H22.6743V12.5372C22.6743 9.95945 20.5799 7.86502 18.0021 7.86502C15.4243 7.86502 13.3299 9.95945 13.3299 12.5372V23.6817Z" fill="#373230"/>
<path d="M19.2695 25.9766H16.7695V29.5766H19.2695V25.9766Z" fill="#373230"/>
<path d="M15.913 21.4832C15.1463 21.4832 14.5186 20.861 14.5186 20.0887V15.9054C14.5186 15.5221 14.2075 15.2054 13.8186 15.2054H12.7741C12.5797 15.2054 12.4297 15.0498 12.4297 14.8609C12.4297 14.6721 12.5852 14.5165 12.7741 14.5165H13.8186C14.5852 14.5165 15.213 15.1387 15.213 15.911V20.0943C15.213 20.4776 15.5241 20.7943 15.913 20.7943C16.3019 20.7943 16.613 20.4832 16.613 20.0943V13.8221C16.613 13.0554 17.2352 12.4276 18.0075 12.4276C18.7797 12.4276 19.4019 13.0498 19.4019 13.8221V15.911C19.4019 16.2943 19.713 16.611 20.1019 16.611C20.4908 16.611 20.8019 16.2998 20.8019 15.911V12.3554C20.8019 11.5887 21.4241 10.9609 22.1964 10.9609H23.2408C23.4352 10.9609 23.5852 11.1165 23.5852 11.3054C23.5852 11.4943 23.4297 11.6499 23.2408 11.6499H22.1964C21.813 11.6499 21.4964 11.9609 21.4964 12.3498V15.9054C21.4964 16.6721 20.8741 17.2998 20.1019 17.2998C19.3297 17.2998 18.7075 16.6776 18.7075 15.9054V13.8165C18.7075 13.4332 18.3964 13.1165 18.0075 13.1165C17.6186 13.1165 17.3075 13.4276 17.3075 13.8165V20.0887C17.3075 20.8554 16.6852 21.4832 15.913 21.4832Z" fill="#373230"/>
</svg>
