<svg width="243" height="243" viewBox="0 0 243 243" fill="none" xmlns="http://www.w3.org/2000/svg">
<path d="M98.8301 108.928C101.204 112.884 103.244 117.007 104.87 121.246C107.933 129.253 109.21 136.839 108.927 143.67C112.884 141.296 117.007 139.256 121.246 137.63C129.253 134.567 136.838 133.289 143.669 133.572C141.295 129.616 139.256 125.493 137.63 121.254C134.566 113.247 133.289 105.661 133.572 98.8305C129.616 101.204 125.492 103.244 121.253 104.87C113.247 107.933 105.661 109.211 98.8301 108.928Z" stroke="white" stroke-width="2.5"/>
<path d="M108.928 143.67C109.211 136.839 107.926 129.253 104.87 121.246C103.244 117.007 101.204 112.884 98.8304 108.928C80.8425 108.195 68.1901 96.544 67.4351 77.5326C56.8224 71.1519 45.3532 67.3844 34.5082 67.3844C7.03274 67.3844 -6.01899 91.4989 5.36317 121.246C16.7453 150.994 48.2495 175.108 75.7249 175.108C76.3347 175.108 76.9372 175.079 77.5324 175.058C85.0092 162.616 96.0792 151.357 108.928 143.662V143.67Z" stroke="white" stroke-width="2.5" stroke-linecap="round" stroke-linejoin="round"/>
<path d="M237.136 121.246C225.754 91.4989 194.25 67.3844 166.775 67.3844C166.165 67.3844 165.562 67.4135 164.967 67.4353C157.49 79.8772 146.42 91.136 133.572 98.8306C133.289 105.661 134.574 113.247 137.63 121.254C139.256 125.493 141.295 129.616 143.669 133.572C161.657 134.305 174.31 145.956 175.064 164.968C185.677 171.348 197.146 175.116 207.991 175.116C235.467 175.116 248.519 151.001 237.136 121.254V121.246Z" stroke="white" stroke-width="2.5" stroke-linecap="round" stroke-linejoin="round"/>
<path d="M98.8304 108.928C105.661 109.211 113.247 107.926 121.254 104.87C125.493 103.244 129.616 101.204 133.572 98.8304C134.305 80.8426 145.956 68.1901 164.967 67.4351C171.348 56.8224 175.116 45.3531 175.116 34.5081C175.116 7.03271 151.001 -6.01903 121.254 5.36313C91.5061 16.7453 67.3916 48.2495 67.3916 75.7249C67.3916 76.3347 67.4206 76.9372 67.4424 77.5324C79.8844 85.0092 91.1431 96.0793 98.8377 108.928H98.8304Z" stroke="white" stroke-width="2.5" stroke-linecap="round" stroke-linejoin="round"/>
<path d="M98.8303 108.928C91.1358 96.0794 79.877 85.0094 67.4351 77.5326C68.19 96.544 80.8425 108.195 98.8303 108.928Z" fill="#FFE300" stroke="white" stroke-width="2.5" stroke-linecap="round" stroke-linejoin="round"/>
<path d="M133.572 98.8304C146.421 91.1359 157.491 79.8771 164.968 67.4351C145.956 68.1901 134.305 80.8425 133.572 98.8304Z" fill="#FFE300" stroke="white" stroke-width="2.5" stroke-linecap="round" stroke-linejoin="round"/>
<path d="M143.669 133.572C136.838 133.289 129.252 134.574 121.246 137.63C117.007 139.256 112.883 141.296 108.927 143.669C108.194 161.657 96.5433 174.31 77.5319 175.065C71.1512 185.678 67.3838 197.147 67.3838 207.992C67.3838 235.467 91.4983 248.519 121.246 237.137C150.993 225.755 175.108 194.258 175.108 166.775C175.108 166.165 175.079 165.563 175.057 164.967C162.615 157.491 151.356 146.421 143.662 133.572H143.669Z" stroke="white" stroke-width="2.5" stroke-linecap="round" stroke-linejoin="round"/>
<path d="M108.928 143.67C96.079 151.364 85.009 162.623 77.5322 175.065C96.5436 174.31 108.194 161.657 108.928 143.67Z" fill="#FFE300" stroke="white" stroke-width="2.5" stroke-linecap="round" stroke-linejoin="round"/>
<path d="M143.669 133.572C151.364 146.421 162.623 157.491 175.065 164.968C174.31 145.956 161.657 134.305 143.669 133.572Z" fill="#FFE300" stroke="white" stroke-width="2.5" stroke-linecap="round" stroke-linejoin="round"/>
</svg>
