<svg width="223" height="203" viewBox="0 0 223 203" fill="none" xmlns="http://www.w3.org/2000/svg">
<path d="M201.058 17.5265V165.591C201.058 166.52 200.26 167.259 199.288 167.242C167.49 166.703 135.519 178.03 111.25 201.25C141.062 177.956 180.388 180.321 219.463 181.35C220.443 181.375 221.25 180.628 221.25 179.69V17.0535C221.25 16.1489 220.496 15.4021 219.541 15.3855C213.912 15.2942 208.274 15.4602 202.662 15.8668C201.76 15.9332 201.058 16.6635 201.058 17.5265Z" fill="#FFE300" stroke="white" stroke-width="2.5" stroke-linecap="round" stroke-linejoin="round"/>
<path d="M21.4424 165.591V17.5265C21.4424 16.6552 20.7399 15.9332 19.8378 15.8668C14.2259 15.4602 8.58797 15.2942 2.95872 15.3855C2.01329 15.4021 1.25 16.1489 1.25 17.0535V179.69C1.25 180.628 2.05666 181.375 3.03679 181.35C42.1119 180.321 81.4299 177.956 111.25 201.25C86.9897 178.039 55.0097 166.703 23.2119 167.242C22.2404 167.259 21.4424 166.52 21.4424 165.591Z" fill="#FFE300" stroke="white" stroke-width="2.5" stroke-linecap="round" stroke-linejoin="round"/>
<path d="M199.358 1.26951C167.534 0.713502 135.528 12.0411 111.25 35.269V201.242C135.51 178.03 167.49 166.694 199.288 167.234C200.26 167.25 201.058 166.512 201.058 165.582V2.93754C201.058 2.03298 200.303 1.28611 199.358 1.26951Z" stroke="white" stroke-width="2.5" stroke-linecap="round" stroke-linejoin="round"/>
<path d="M23.1415 1.26951C54.9653 0.713502 86.9714 12.0411 111.249 35.2773V201.25C86.9887 178.039 55.0087 166.703 23.2108 167.242C22.2394 167.259 21.4414 166.52 21.4414 165.591V2.93754C21.4414 2.03298 22.196 1.28611 23.1415 1.26951Z" stroke="white" stroke-width="2.5" stroke-linecap="round" stroke-linejoin="round"/>
</svg>
